<svg width="16" height="16" viewBox="0 0 16 16" fill="none" xmlns="http://www.w3.org/2000/svg">
<path d="M15.3169 12.1315C15.7056 11.3254 15.8963 10.4381 15.8732 9.54348C15.8501 8.64883 15.6139 7.7726 15.1841 6.98758C14.7544 6.20256 14.1435 5.53141 13.4023 5.02988C12.6611 4.52835 11.8109 4.21091 10.9224 4.10395C10.6267 3.41655 10.1969 2.79505 9.65804 2.27584C9.1192 1.75663 8.48218 1.35015 7.78429 1.0802C7.08639 0.810255 6.34165 0.682266 5.59368 0.703731C4.8457 0.725195 4.10953 0.895682 3.42827 1.20521C2.747 1.51473 2.13434 1.95707 1.62616 2.50633C1.11798 3.05559 0.724502 3.70071 0.468758 4.40394C0.213015 5.10716 0.10015 5.85434 0.136774 6.60173C0.173398 7.34911 0.358774 8.08168 0.682047 8.75653L0.170875 10.4939C0.113722 10.6879 0.1099 10.8937 0.159812 11.0896C0.209725 11.2856 0.311526 11.4644 0.454505 11.6074C0.597484 11.7504 0.776357 11.8522 0.972303 11.9021C1.16825 11.952 1.37403 11.9482 1.56798 11.8911L3.30541 11.3799C3.86329 11.6479 4.4614 11.8225 5.07588 11.8967C5.37441 12.5962 5.81168 13.2278 6.36126 13.7535C6.91084 14.2792 7.56131 14.688 8.27336 14.9551C8.9854 15.2223 9.74423 15.3423 10.504 15.3079C11.2637 15.2735 12.0086 15.0853 12.6935 14.7549L14.431 15.2661C14.6248 15.3231 14.8305 15.3269 15.0264 15.2771C15.2222 15.2272 15.4011 15.1254 15.544 14.9826C15.687 14.8397 15.7888 14.6609 15.8388 14.4651C15.8887 14.2693 15.8851 14.0636 15.8281 13.8697L15.3169 12.1315ZM3.35884 10.2148C3.30509 10.2149 3.25161 10.2225 3.19994 10.2373L1.24947 10.8125L1.82392 8.86059C1.86478 8.71957 1.84888 8.56817 1.77962 8.43872C1.27078 7.48709 1.12085 6.3843 1.35716 5.33137C1.59348 4.27844 2.2003 3.34549 3.06701 2.70258C3.93372 2.05968 5.0026 1.74964 6.0788 1.82899C7.15501 1.90833 8.16686 2.37177 8.92992 3.13483C9.69298 3.89788 10.1564 4.90974 10.2358 5.98594C10.3151 7.06215 10.0051 8.13103 9.36216 8.99774C8.71926 9.86445 7.78631 10.4713 6.73338 10.7076C5.68045 10.9439 4.57765 10.794 3.62603 10.2851C3.5442 10.2398 3.45237 10.2157 3.35884 10.2148ZM14.1722 12.2349L14.7495 14.1875L12.7976 13.613C12.6566 13.5722 12.5052 13.5881 12.3757 13.6573C11.3399 14.2104 10.129 14.3371 9.00115 14.0103C7.8733 13.6835 6.91768 12.9291 6.33798 11.9079C7.10817 11.8275 7.85344 11.5889 8.52703 11.2069C9.20061 10.8249 9.78799 10.3078 10.2523 9.68804C10.7166 9.06832 11.0479 8.35932 11.2252 7.60554C11.4026 6.85176 11.4223 6.06945 11.2831 5.3077C11.9541 5.46588 12.5799 5.77613 13.112 6.21452C13.6441 6.65291 14.0684 7.2077 14.3521 7.83608C14.6357 8.46446 14.7712 9.14962 14.7481 9.83868C14.725 10.5277 14.5438 11.2023 14.2186 11.8102C14.1486 11.9404 14.1327 12.093 14.1743 12.2349H14.1722Z" fill="white"/>
</svg>
