<svg width="21" height="23" viewBox="0 0 21 23" fill="none" xmlns="http://www.w3.org/2000/svg">
<path fill-rule="evenodd" clip-rule="evenodd" d="M19.2614 0.5V5.77715C19.5149 5.82387 19.7574 5.92242 19.9734 6.06789C20.2846 6.27753 20.5264 6.57502 20.6691 6.92221C20.8117 7.26936 20.849 7.65109 20.7763 8.01932C20.7037 8.38758 20.5242 8.72646 20.2599 8.99288C19.9956 9.25935 19.6583 9.44135 19.2904 9.51513C18.9225 9.58891 18.5412 9.551 18.1949 9.40639C17.8487 9.26179 17.5535 9.01725 17.3461 8.70438C17.1388 8.39157 17.0284 8.02429 17.0284 7.64894H18.1534C18.1534 7.80381 18.199 7.95483 18.2839 8.08289C18.3687 8.21089 18.4888 8.30996 18.6284 8.36827C18.768 8.42656 18.9213 8.44174 19.0692 8.41209C19.2171 8.38242 19.3536 8.30909 19.4612 8.20064C19.5688 8.09213 19.6426 7.95334 19.6726 7.80156C19.7025 7.64976 19.6871 7.49246 19.6285 7.34974C19.5699 7.20707 19.4709 7.08587 19.3448 7.00093C19.2188 6.91604 19.0711 6.87101 18.9205 6.87101H18.6861L18.1364 6.31676V0.5H19.2614ZM1.73064 0.831117H2.7255L2.88081 0.959813L2.88227 0.961008L2.89195 0.968785C2.90136 0.976285 2.91661 0.988288 2.93739 1.00416C2.97898 1.03592 3.04252 1.08301 3.12548 1.14036C3.29179 1.25534 3.53389 1.40997 3.83172 1.56461C4.41958 1.86985 5.18998 2.15712 6.00656 2.17102C6.88329 1.87463 7.80229 1.72381 8.72758 1.72473C8.7275 1.72473 8.72767 1.72473 8.72758 1.72473H9.43636C11.9277 1.72473 14.1505 2.90824 15.6041 4.85493L15.7159 5.00464V5.83824L15.3091 5.95542C14.6054 6.15813 13.9363 6.5187 13.4335 6.83884C13.3684 6.88031 13.3064 6.92087 13.2479 6.96002C13.6579 7.08084 14.2426 7.21854 15.0021 7.31425L15.4943 7.37628V8.3274L15.3312 8.49187C14.4044 9.42624 13.5239 10.0375 12.5581 10.4081C11.5957 10.7775 10.5886 10.8923 9.43636 10.8923H8.72727C7.14364 10.8923 5.74432 12.3723 5.74432 14.3511C5.74432 16.1993 6.96509 17.6124 8.41659 17.7908C9.47854 16.0807 11.3361 14.6822 13.5136 14.6822H14.0761V15.77L13.8261 15.9358L13.8252 15.9364L13.8246 15.9368L13.8169 15.9422C13.8084 15.9481 13.7944 15.958 13.7756 15.9719C13.7379 15.9998 13.6814 16.0432 13.6123 16.1012C13.4735 16.2179 13.2877 16.3904 13.1028 16.6112C12.7281 17.0586 12.392 17.6604 12.392 18.3723C12.392 19.0842 12.7281 19.6861 13.1028 20.1335C13.2877 20.3542 13.4735 20.5268 13.6123 20.6435C13.6814 20.7015 13.7379 20.7449 13.7756 20.7727C13.7944 20.7866 13.8084 20.7966 13.8169 20.8025L13.8246 20.8078L13.8252 20.8083L13.8261 20.8088L14.0761 20.9747V22.0625H13.5136C11.3254 22.0625 9.46023 20.6501 8.40094 18.9286C6.25322 18.8459 4.21127 17.9495 2.68712 16.4129C1.08612 14.7987 0.1875 12.6105 0.1875 10.3298C0.1875 10.3298 0.1875 10.3298 0.1875 10.3298C0.187502 7.162 0.524188 4.88574 0.866454 3.39045C1.03756 2.64292 1.20994 2.09108 1.34206 1.72108C1.40812 1.5361 1.46408 1.39664 1.50475 1.30097C1.52508 1.25314 1.54159 1.21626 1.55362 1.19012C1.55963 1.17704 1.56453 1.16666 1.56822 1.15893L1.57285 1.14933L1.57447 1.14602L1.5751 1.14473C1.57522 1.14449 1.57561 1.1437 2.07955 1.39362L1.57561 1.1437L1.73064 0.831117ZM2.42828 2.0256C2.41964 2.04909 2.41072 2.07369 2.40154 2.0994C2.28437 2.42754 2.12437 2.93686 1.96309 3.64147C1.84198 4.17057 1.72009 4.81007 1.61507 5.56596C1.66338 5.4927 1.71286 5.4201 1.76349 5.3482C2.43827 4.39003 3.29679 3.58637 4.28197 2.98083C3.91935 2.85604 3.59245 2.70799 3.3133 2.56305C2.96575 2.38258 2.68296 2.20211 2.48573 2.06575C2.46571 2.05192 2.44655 2.03852 2.42828 2.0256ZM1.3125 10.3298C1.3125 12.3151 2.0948 14.2182 3.48585 15.6206C4.04514 16.1845 4.68439 16.6488 5.37662 17.0026C4.89678 16.2455 4.61932 15.325 4.61932 14.3511C4.61932 11.8885 6.39318 9.76729 8.72727 9.76729H9.43636C10.5169 9.76729 11.3712 9.65867 12.1551 9.35782C12.7399 9.13337 13.3081 8.79317 13.912 8.27797C13.4444 8.1856 13.0632 8.08282 12.7685 7.98996C12.5315 7.9153 12.3506 7.8471 12.2257 7.79596C12.1633 7.7704 12.1149 7.7491 12.0805 7.7334C12.0634 7.72555 12.0497 7.7191 12.0395 7.71421L12.0269 7.70808L12.0225 7.70593L12.0209 7.7051L12.0202 7.70474C12.02 7.70466 12.0195 7.70442 12.2727 7.20213L12.0202 7.70474L11.7102 7.5485V6.71664L11.9109 6.54805L12.2727 6.97872C11.9109 6.54805 11.9108 6.54812 11.9109 6.54805L11.9118 6.54731L11.9131 6.54616L11.9173 6.54266L11.9315 6.531C11.9435 6.5212 11.9604 6.50743 11.9821 6.49012C12.0255 6.45552 12.0879 6.40671 12.1671 6.34727C12.3254 6.22853 12.552 6.06646 12.8293 5.88988C13.2358 5.631 13.7635 5.33314 14.3536 5.09681C13.1121 3.68156 11.3673 2.84973 9.43636 2.84973H8.72727C7.89639 2.84888 7.07066 2.98914 6.28584 3.26468C4.83383 3.77603 3.57467 4.73023 2.6833 5.99596C1.79184 7.26181 1.31257 8.77636 1.3125 10.3298ZM12.0984 20.6782C11.6761 20.1241 11.267 19.3392 11.267 18.3723C11.267 17.4055 11.6761 16.6205 12.0984 16.0665C10.9928 16.4748 10.0289 17.3297 9.37954 18.3723C10.0289 19.415 10.9928 20.2698 12.0984 20.6782ZM11.0625 4.07447V5.8617H9.9375V4.07447H11.0625Z" fill="#F0F0F0"/>
</svg>
