<svg width="24" height="18" viewBox="0 0 24 18" fill="none" xmlns="http://www.w3.org/2000/svg">
<path d="M15.3749 5.5C15.8941 5.5 16.4016 5.34605 16.8333 5.05761C17.265 4.76917 17.6014 4.3592 17.8001 3.87955C17.9988 3.39989 18.0508 2.87209 17.9495 2.36289C17.8482 1.85369 17.5982 1.38596 17.2311 1.01885C16.864 0.651733 16.3963 0.401726 15.8871 0.30044C15.3779 0.199154 14.8501 0.251137 14.3704 0.449817C13.8907 0.648497 13.4808 0.98495 13.1923 1.41663C12.9039 1.84831 12.7499 2.35583 12.7499 2.875C12.7499 3.57119 13.0265 4.23887 13.5188 4.73116C14.0111 5.22344 14.6787 5.5 15.3749 5.5ZM15.3749 1.75C15.5974 1.75 15.815 1.81598 16 1.9396C16.185 2.06321 16.3292 2.23892 16.4143 2.44448C16.4995 2.65005 16.5217 2.87625 16.4783 3.09448C16.4349 3.31271 16.3278 3.51316 16.1704 3.6705C16.0131 3.82783 15.8126 3.93498 15.5944 3.97838C15.3762 4.02179 15.15 3.99951 14.9444 3.91437C14.7389 3.82922 14.5632 3.68502 14.4395 3.50002C14.3159 3.31501 14.2499 3.09751 14.2499 2.875C14.2499 2.57663 14.3685 2.29048 14.5794 2.07951C14.7904 1.86853 15.0766 1.75 15.3749 1.75ZM23.8949 16.3675L18.7799 7.735C18.648 7.51012 18.4593 7.32385 18.2328 7.19486C18.0062 7.06586 17.7497 6.99867 17.489 7C17.2284 6.99864 16.972 7.06583 16.7456 7.19484C16.5192 7.32385 16.3307 7.51013 16.199 7.735L13.7465 11.875L9.54276 4.74063C9.41029 4.5155 9.22133 4.32886 8.99458 4.19919C8.76783 4.06952 8.51115 4.00131 8.24994 4.00131C7.98873 4.00131 7.73205 4.06952 7.5053 4.19919C7.27855 4.32886 7.08959 4.5155 6.95713 4.74063L0.104005 16.3694C0.0369245 16.4833 0.00113451 16.6129 0.00026054 16.745C-0.000613433 16.8772 0.0334596 17.0073 0.0990286 17.122C0.164597 17.2368 0.259333 17.3322 0.37364 17.3986C0.487946 17.465 0.617764 17.4999 0.749943 17.5H23.2499C23.3823 17.5 23.5123 17.4649 23.6268 17.3984C23.7412 17.3318 23.836 17.2362 23.9015 17.1212C23.967 17.0061 24.0009 16.8758 23.9998 16.7435C23.9986 16.6111 23.9625 16.4814 23.8949 16.3675ZM8.24994 5.5L10.4596 9.25H6.04026L8.24994 5.5ZM2.06244 16L5.15619 10.75H11.3437L13.1006 13.7313L14.4374 16H2.06244ZM16.1784 16L14.6165 13.3488L17.489 8.5L21.9374 16H16.1784Z" fill="white"/>
</svg>
