<svg width="22" height="22" viewBox="0 0 22 22" fill="none" xmlns="http://www.w3.org/2000/svg">
<path d="M20.75 10.25H19.9681C19.7882 8.13073 18.8645 6.14338 17.3606 4.63943C15.8566 3.13549 13.8693 2.21185 11.75 2.03188V1.25C11.75 1.05109 11.671 0.860322 11.5303 0.71967C11.3897 0.579018 11.1989 0.5 11 0.5C10.8011 0.5 10.6103 0.579018 10.4697 0.71967C10.329 0.860322 10.25 1.05109 10.25 1.25V2.03188C8.13073 2.21185 6.14338 3.13549 4.63943 4.63943C3.13549 6.14338 2.21185 8.13073 2.03188 10.25H1.25C1.05109 10.25 0.860322 10.329 0.71967 10.4697C0.579018 10.6103 0.5 10.8011 0.5 11C0.5 11.1989 0.579018 11.3897 0.71967 11.5303C0.860322 11.671 1.05109 11.75 1.25 11.75H2.03188C2.21185 13.8693 3.13549 15.8566 4.63943 17.3606C6.14338 18.8645 8.13073 19.7882 10.25 19.9681V20.75C10.25 20.9489 10.329 21.1397 10.4697 21.2803C10.6103 21.421 10.8011 21.5 11 21.5C11.1989 21.5 11.3897 21.421 11.5303 21.2803C11.671 21.1397 11.75 20.9489 11.75 20.75V19.9681C13.8693 19.7882 15.8566 18.8645 17.3606 17.3606C18.8645 15.8566 19.7882 13.8693 19.9681 11.75H20.75C20.9489 11.75 21.1397 11.671 21.2803 11.5303C21.421 11.3897 21.5 11.1989 21.5 11C21.5 10.8011 21.421 10.6103 21.2803 10.4697C21.1397 10.329 20.9489 10.25 20.75 10.25ZM11.75 18.4625V17.75C11.75 17.5511 11.671 17.3603 11.5303 17.2197C11.3897 17.079 11.1989 17 11 17C10.8011 17 10.6103 17.079 10.4697 17.2197C10.329 17.3603 10.25 17.5511 10.25 17.75V18.4625C8.52957 18.287 6.92235 17.5233 5.6995 16.3005C4.47666 15.0777 3.71305 13.4704 3.5375 11.75H4.25C4.44891 11.75 4.63968 11.671 4.78033 11.5303C4.92098 11.3897 5 11.1989 5 11C5 10.8011 4.92098 10.6103 4.78033 10.4697C4.63968 10.329 4.44891 10.25 4.25 10.25H3.5375C3.71305 8.52957 4.47666 6.92235 5.6995 5.6995C6.92235 4.47666 8.52957 3.71305 10.25 3.5375V4.25C10.25 4.44891 10.329 4.63968 10.4697 4.78033C10.6103 4.92098 10.8011 5 11 5C11.1989 5 11.3897 4.92098 11.5303 4.78033C11.671 4.63968 11.75 4.44891 11.75 4.25V3.5375C13.4704 3.71305 15.0777 4.47666 16.3005 5.6995C17.5233 6.92235 18.287 8.52957 18.4625 10.25H17.75C17.5511 10.25 17.3603 10.329 17.2197 10.4697C17.079 10.6103 17 10.8011 17 11C17 11.1989 17.079 11.3897 17.2197 11.5303C17.3603 11.671 17.5511 11.75 17.75 11.75H18.4625C18.287 13.4704 17.5233 15.0777 16.3005 16.3005C15.0777 17.5233 13.4704 18.287 11.75 18.4625ZM11 7.25C10.2583 7.25 9.5333 7.46993 8.91661 7.88199C8.29993 8.29404 7.81928 8.87971 7.53545 9.56494C7.25162 10.2502 7.17736 11.0042 7.32205 11.7316C7.46675 12.459 7.8239 13.1272 8.34835 13.6517C8.8728 14.1761 9.54098 14.5333 10.2684 14.6779C10.9958 14.8226 11.7498 14.7484 12.4351 14.4645C13.1203 14.1807 13.706 13.7001 14.118 13.0834C14.5301 12.4667 14.75 11.7417 14.75 11C14.75 10.0054 14.3549 9.05161 13.6517 8.34835C12.9484 7.64509 11.9946 7.25 11 7.25ZM11 13.25C10.555 13.25 10.12 13.118 9.74997 12.8708C9.37996 12.6236 9.09157 12.2722 8.92127 11.861C8.75097 11.4499 8.70642 10.9975 8.79323 10.561C8.88005 10.1246 9.09434 9.72368 9.40901 9.40901C9.72368 9.09434 10.1246 8.88005 10.561 8.79323C10.9975 8.70642 11.4499 8.75097 11.861 8.92127C12.2722 9.09157 12.6236 9.37996 12.8708 9.74997C13.118 10.12 13.25 10.555 13.25 11C13.25 11.5967 13.0129 12.169 12.591 12.591C12.169 13.0129 11.5967 13.25 11 13.25Z" fill="#F0F0F0"/>
</svg>
