<svg width="20" height="20" viewBox="0 0 20 20" fill="none" xmlns="http://www.w3.org/2000/svg">
<g id="Monotone add">
<path id="Vector" d="M19.726 9.72809C19.8135 9.64098 19.883 9.53744 19.9303 9.42341C19.9777 9.30938 20.0021 9.18712 20.0021 9.06364C20.0021 8.94016 19.9777 8.81789 19.9303 8.70386C19.883 8.58984 19.8135 8.4863 19.726 8.39918C19.6389 8.31178 19.5354 8.24244 19.4214 8.19512C19.3075 8.1478 19.1853 8.12344 19.0619 8.12344C18.9385 8.12344 18.8164 8.1478 18.7024 8.19512C18.5885 8.24244 18.485 8.31178 18.3979 8.39918L19.726 9.72809ZM19.726 9.72809L16.1049 13.3484L19.726 9.72809ZM19.6928 8.43227L19.6929 8.43241C19.7761 8.51516 19.842 8.61353 19.8871 8.72185C19.9321 8.83018 19.9552 8.94633 19.9552 9.06364C19.9552 9.18094 19.9321 9.2971 19.8871 9.40542C19.842 9.51375 19.7761 9.61211 19.6929 9.69487L19.6929 9.69494L16.0718 13.3153L16.0717 13.3154C15.9313 13.4565 15.7644 13.5685 15.5805 13.6447C15.3966 13.7209 15.1994 13.7599 15.0004 13.7593C14.8303 13.7586 14.6614 13.7297 14.5008 13.6737L14.473 13.664L14.4522 13.6848L12.9468 15.1903C12.9468 15.1903 12.9468 15.1903 12.9468 15.1903C12.6625 15.4744 12.2771 15.634 11.8752 15.634C11.4733 15.634 11.0879 15.4744 10.8037 15.1903C10.8037 15.1903 10.8037 15.1903 10.8037 15.1903L10.6584 15.0449L10.6252 15.0118L10.5921 15.0449L8.13037 17.5043L8.13033 17.5043C8.04762 17.5872 7.94939 17.6529 7.84127 17.6977C7.73315 17.7425 7.61726 17.7656 7.50021 17.7656H7.50015C7.40459 17.7657 7.30965 17.7502 7.21911 17.7196L7.21894 17.7196L1.59394 15.8446L1.59391 15.8445C1.44983 15.7966 1.32039 15.7127 1.21789 15.6006C1.1154 15.4886 1.04324 15.3522 1.00829 15.2045C0.973339 15.0567 0.976747 14.9024 1.01819 14.7564C1.05964 14.6103 1.13774 14.4772 1.24508 14.3698L5.58024 10.0331L5.61311 10.0002L5.5805 9.96709L5.43754 9.82178L5.43727 9.82151C5.15313 9.53729 4.99352 9.15185 4.99352 8.74997C4.99352 8.34808 5.15313 7.96264 5.43727 7.67842L6.94352 6.17217L6.96433 6.15136L6.95462 6.12357C6.86068 5.85468 6.8444 5.56475 6.90767 5.28704C6.97093 5.00932 7.11117 4.75505 7.31231 4.55338L10.9334 0.930768C11.1007 0.763438 11.3276 0.669434 11.5643 0.669434C11.8009 0.669434 12.0279 0.763438 12.1952 0.930768C12.3625 1.0981 12.4565 1.32504 12.4565 1.56168C12.4565 1.79832 12.3625 2.02527 12.1952 2.1926L8.7952 5.59182L8.76204 5.62496L8.79519 5.65811L14.9671 11.83L15.0002 11.8631L15.0334 11.83L18.431 8.43233L18.4311 8.43227C18.5138 8.34924 18.6121 8.28336 18.7204 8.23841C18.8286 8.19346 18.9447 8.17032 19.0619 8.17032C19.1791 8.17032 19.2952 8.19346 19.4035 8.23841C19.5117 8.28336 19.61 8.34924 19.6928 8.43227ZM10.6252 15.0781L10.5921 15.1112L8.1635 17.5375C8.07643 17.6246 7.97304 17.6938 7.85923 17.741C7.74541 17.7882 7.62342 17.8125 7.50021 17.8125C7.39953 17.8126 7.29951 17.7962 7.20412 17.764L1.57912 15.889C1.42745 15.8386 1.2912 15.7502 1.18331 15.6323C1.07542 15.5143 0.999467 15.3708 0.962675 15.2152C0.925883 15.0597 0.92947 14.8973 0.973096 14.7436C1.01672 14.5898 1.09894 14.4497 1.21193 14.3367L5.54709 9.99996L5.40412 9.85465C5.1112 9.56164 4.94664 9.16428 4.94664 8.74997C4.94664 8.33565 5.1112 7.93829 5.40412 7.64528L10.6252 15.0781ZM7.23227 15.8468L7.25977 15.8559L7.28025 15.8354L9.33025 13.7831L9.36336 13.7499L9.33023 13.7168L6.90836 11.2949L6.87523 11.2618L6.84208 11.2949L3.57724 14.5574L3.52356 14.6111L3.59555 14.6351L7.23227 15.8468ZM11.8421 13.705L11.8752 13.7381L11.9084 13.705L13.0802 12.5331L13.1134 12.5L13.0802 12.4668L8.15836 7.54494L8.12521 7.5118L8.09207 7.54494L6.92019 8.71682L6.88711 8.7499L6.92013 8.78304L7.50528 9.37054L7.50536 9.37062L11.8421 13.705Z" fill="#0E9594" stroke="#0E9594" stroke-width="0.09375"/>
</g>
</svg>
